HIERARCHY
ROOT SpineBase
{
  OFFSET 0.000000 0.000000 0.000000
  CHANNELS 6 Xposition Yposition Zposition Zrotation Xrotation Yrotation
  JOINT SpineMid
  {
    OFFSET -0.000000 36.074075 0.000000
    CHANNELS 3 Zrotation Xrotation Yrotation
    JOINT SpineShoulder
    {
      OFFSET -0.334667 26.543082 -0.932116
      CHANNELS 3 Zrotation Xrotation Yrotation
      JOINT Neck
      {
        OFFSET -0.302213 8.754967 -0.663754
        CHANNELS 3 Zrotation Xrotation Yrotation
        JOINT Head
        {
          OFFSET -1.949213 12.751335 5.097389
          CHANNELS 3 Zrotation Xrotation Yrotation
          End Site
          {
            OFFSET 0 0 0
          }
        }
      }
      JOINT ShoulderLeft
      {
        OFFSET -9.024985 -7.403132 -14.852715
        CHANNELS 3 Zrotation Xrotation Yrotation
        JOINT ElbowLeft
        {
          OFFSET -5.340794 -30.417041 -0.103830
          CHANNELS 3 Zrotation Xrotation Yrotation
          JOINT WristLeft
          {
            OFFSET -4.423531 -26.805836 5.182458
            CHANNELS 3 Zrotation Xrotation Yrotation
            JOINT HandLeft
            {
              OFFSET -0.207910 -7.924301 2.047945
              CHANNELS 3 Zrotation Xrotation Yrotation
              JOINT HandTipLeft
              {
                OFFSET -0.752977 -7.700884 0.044011
                CHANNELS 3 Zrotation Xrotation Yrotation
                End Site
                {
                  OFFSET 0 0 0
                }
              }
              JOINT ThumbLeft
              {
                OFFSET 1.541794 -2.492480 -1.873871
                CHANNELS 3 Zrotation Xrotation Yrotation
                End Site
                {
                  OFFSET 0 0 0
                }
              }
            }
          }
        }
      }
      JOINT ShoulderRight
      {
        OFFSET 3.160470 -6.556458 -10.822304
        CHANNELS 3 Zrotation Xrotation Yrotation
        JOINT ElbowRight
        {
          OFFSET -15.595781 -24.906713 -6.475477
          CHANNELS 3 Zrotation Xrotation Yrotation
          JOINT WristRight
          {
            OFFSET -6.077585 -28.681550 6.747259
            CHANNELS 3 Zrotation Xrotation Yrotation
            JOINT HandRight
            {
              OFFSET -0.896596 -10.011873 2.282337
              CHANNELS 3 Zrotation Xrotation Yrotation
              JOINT HandTipRight
              {
                OFFSET -1.812007 -8.711458 0.358850
                CHANNELS 3 Zrotation Xrotation Yrotation
                End Site
                {
                  OFFSET 0 0 0
                }
              }
              JOINT ThumbRight
              {
                OFFSET -1.351994 -1.152436 -4.015260
                CHANNELS 3 Zrotation Xrotation Yrotation
                End Site
                {
                  OFFSET 0 0 0
                }
              }
            }
          }
        }
      }
    }
  }
  JOINT HipLeft
  {
    OFFSET -6.917895 0.603355 -3.090738
    CHANNELS 3 Zrotation Xrotation Yrotation
    JOINT KneeLeft
    {
      OFFSET 6.785920 -45.680534 1.644828
      CHANNELS 3 Zrotation Xrotation Yrotation
      JOINT AnkleLeft
      {
        OFFSET 0.180841 -37.462789 1.894310
        CHANNELS 3 Zrotation Xrotation Yrotation
        JOINT FootLeft
        {
          OFFSET 0.404238 -6.962287 -9.432967
          CHANNELS 3 Zrotation Xrotation Yrotation
          End Site
          {
            OFFSET 0 0 0
          }
        }
      }
    }
  }
  JOINT HipRight
  {
    OFFSET 4.335957 1.219466 -4.743697
    CHANNELS 3 Zrotation Xrotation Yrotation
    JOINT KneeRight
    {
      OFFSET 2.937517 -45.437975 6.994810
      CHANNELS 3 Zrotation Xrotation Yrotation
      JOINT AnkleRight
      {
        OFFSET 16.906589 -37.110346 11.058131
        CHANNELS 3 Zrotation Xrotation Yrotation
        JOINT FootRight
        {
          OFFSET 0.505795 -8.276546 -7.353265
          CHANNELS 3 Zrotation Xrotation Yrotation
          End Site
          {
            OFFSET 0 0 0
          }
        }
      }
    }
  }
}
MOTION
Frames: 13
Frame Time: 0.033333
82.307715 89.605401 260.886676 0.000000 0.000000 8.355823 -0.000000 0.000000 -8.355823 -0.000000 0.000000 0.000000 -0.000000 0.000000 0.000000 0.000000 0.000000 0.000000 -0.000000 0.000000 0.000000 -0.000000 0.000000 0.000000 -0.000000 0.000000 0.000000 -0.000000 0.000000 0.000000 0.000000 0.000000 0.000000 0.000000 0.000000 0.000000 -0.000000 0.000000 0.000000 -0.000000 0.000000 0.000000 -0.000000 0.000000 0.000000 -0.000000 0.000000 0.000000 0.000000 0.000000 0.000000 0.000000 0.000000 0.000000 -0.000000 0.000000 -8.355823 -0.000000 0.000000 0.000000 -0.000000 0.000000 0.000000 0.000000 0.000000 0.000000 -0.000000 0.000000 -8.355823 -0.000000 0.000000 0.000000 -0.000000 0.000000 0.000000 0.000000 0.000000 0.000000
82.054474 88.897618 260.822441 0.136862 0.355169 4.805395 -0.166137 -0.342454 -4.806315 -0.000000 0.000000 0.000000 -0.000000 0.000000 0.000000 0.000000 0.000000 0.000000 1.586485 0.680069 -0.134568 -1.584997 -0.683532 0.115697 1.998500 -0.810812 0.551198 -2.185214 3.052946 -0.734516 0.000000 0.000000 0.000000 0.000000 0.000000 0.000000 -0.000000 0.000000 0.000000 0.349034 0.925250 -0.117070 -0.429028 -3.436939 0.312441 2.386520 4.213419 -0.604448 0.000000 0.000000 0.000000 0.000000 0.000000 0.000000 4.907622 -5.409999 -5.039353 -9.871957 8.243603 0.997412 3.622108 -1.022290 1.313991 0.000000 0.000000 0.000000 -3.326547 2.657599 -5.091539 1.528516 -2.198164 0.020643 2.534808 13.286529 0.450290 0.000000 0.000000 0.000000
81.853942 88.298202 260.902916 0.228331 0.649607 1.798051 -0.107431 0.172350 -1.785779 -0.220956 0.045436 0.005922 -0.535634 -1.371264 0.145330 0.000000 0.000000 0.000000 3.299694 0.492485 -0.261143 -3.188895 -1.370179 0.212313 4.023873 -1.698475 1.141230 -4.263742 5.902264 -1.406705 0.000000 0.000000 0.000000 0.000000 0.000000 0.000000 -1.029511 -0.443403 -0.002154 1.751572 1.212489 -0.234014 -0.683080 -6.090921 0.564398 4.166128 7.432301 -1.267348 0.000000 0.000000 0.000000 0.000000 0.000000 0.000000 9.742061 -9.614608 -1.820295 -18.010125 14.576249 2.885810 5.069341 -0.725557 3.628094 0.000000 0.000000 0.000000 -6.611220 4.681192 -2.255788 2.752257 -3.667308 0.183905 4.399926 20.588769 1.017561 0.000000 0.000000 0.000000
81.706119 87.807155 261.128102 0.276119 0.886387 -0.675693 -0.153015 0.222554 0.690576 -0.307932 0.058791 0.005254 -0.587400 -1.717400 0.179994 0.000000 0.000000 0.000000 5.014750 0.864120 -0.388483 -4.821190 -2.063237 0.289789 5.870073 -2.603946 1.712360 -6.027524 8.250934 -1.954860 0.000000 0.000000 0.000000 0.000000 0.000000 0.000000 -1.318501 -0.668317 0.027403 2.303119 1.621858 -0.340965 -0.774128 -8.047689 0.772714 5.235083 9.700920 -1.829963 0.000000 0.000000 0.000000 0.000000 0.000000 0.000000 14.100705 -12.661803 1.108864 -24.315718 19.070780 4.965524 4.433927 0.524988 6.785957 0.000000 0.000000 0.000000 -9.555116 6.031628 0.114994 3.443895 -4.250192 0.462931 5.796303 23.708053 1.816351 0.000000 0.000000 0.000000
81.611005 87.424476 261.497999 0.281481 1.067962 -2.634979 -0.188091 0.251803 2.650932 -0.379977 0.065251 0.002584 -0.494032 -1.838139 0.193880 0.000000 0.000000 0.000000 6.785591 1.321820 -0.524395 -6.491728 -2.766056 0.347625 7.288382 -3.446434 2.182572 -7.249318 9.793292 -2.319978 0.000000 0.000000 0.000000 0.000000 0.000000 0.000000 -1.463183 -0.895499 0.080682 2.643982 1.897976 -0.441398 -0.705532 -9.361662 0.947571 5.504101 11.054424 -2.175722 0.000000 0.000000 0.000000 0.000000 0.000000 0.000000 17.695730 -14.717184 3.575817 -28.625241 21.951117 6.707660 1.919964 2.331537 10.644562 0.000000 0.000000 0.000000 -11.902371 6.722884 1.988475 3.404649 -3.814313 0.847807 6.799445 23.583571 2.883874 0.000000 0.000000 0.000000
81.568599 87.150164 262.012605 0.245256 1.196226 -4.101711 -0.210234 0.262019 4.117528 -0.437511 0.064488 -0.001872 0.382805 -1.537059 -0.018882 0.000000 0.000000 0.000000 8.622365 1.867293 -0.677529 -8.210838 -3.482052 0.384846 8.059882 -4.140704 2.468080 -7.745780 10.296981 -2.462403 0.000000 0.000000 0.000000 0.000000 0.000000 0.000000 -1.466115 -1.125647 0.159603 2.776285 2.040696 -0.535240 -0.473337 -10.059166 1.094197 4.914752 11.512352 -2.239133 0.000000 0.000000 0.000000 0.000000 0.000000 0.000000 20.355802 -15.979608 5.465164 -30.797396 23.444453 7.764219 -2.166730 4.358108 15.015131 0.000000 0.000000 0.000000 -13.469840 6.805383 3.349472 2.481397 -2.261097 1.369077 7.377385 20.302410 4.244169 0.000000 0.000000 0.000000
81.513715 87.143130 262.686170 0.108566 1.378886 -3.794621 -0.202885 0.234363 3.809005 -0.490196 0.037790 -0.010194 0.568435 -1.663867 -0.006081 0.000000 0.000000 0.000000 11.381730 3.098504 -1.032815 -10.760438 -4.900805 0.429005 6.576834 -4.426532 2.054587 -4.686789 8.486065 -2.112620 0.000000 0.000000 0.000000 0.000000 0.000000 0.000000 -1.361478 -1.643694 0.422767 2.444757 2.310688 -0.877863 0.398089 -10.028585 1.331610 3.063695 10.008054 -1.743270 0.000000 0.000000 0.000000 0.000000 0.000000 0.000000 22.875938 -17.371067 5.724374 -32.897823 23.765542 8.509489 -6.498712 5.279782 19.671334 0.000000 0.000000 0.000000 -13.996150 6.618941 2.917041 -1.352360 1.849588 2.290014 10.363562 3.882572 4.695619 0.000000 0.000000 0.000000
81.536244 87.145965 263.517763 -0.087791 1.419676 -4.407329 -0.187152 0.204191 4.418370 -0.526798 0.006371 -0.021873 1.015986 -0.645074 0.079024 0.000000 0.000000 0.000000 14.113111 4.140109 -1.367577 -14.320755 -6.658333 0.179871 6.507482 -4.561458 1.800644 -3.863018 6.908658 -1.575534 0.000000 0.000000 0.000000 0.000000 0.000000 0.000000 -1.079446 -2.002670 0.657930 2.222297 2.333523 -1.065334 1.027616 -9.627963 1.443433 -0.242706 10.263819 -1.541245 0.000000 0.000000 0.000000 0.000000 0.000000 0.000000 22.852213 -16.998283 6.247963 -29.242478 21.956954 7.265592 -12.089654 10.840913 23.068397 0.000000 0.000000 0.000000 -12.256857 5.088794 3.433984 -7.862623 7.671415 3.625854 2.527209 -25.663281 9.902679 0.000000 0.000000 0.000000
81.694516 87.122303 264.488383 -0.231467 1.358220 -5.035465 -0.175068 0.169768 5.042676 -0.533917 -0.005007 -0.030024 1.756058 -0.010707 -0.057739 0.000000 0.000000 0.000000 16.137912 4.986977 -1.669013 -16.939120 -8.085829 -0.036534 7.059354 -3.358234 1.674710 -4.028830 4.540041 -1.310441 0.000000 0.000000 0.000000 0.000000 0.000000 0.000000 -0.567393 -2.153469 0.749977 1.853618 1.968339 -0.998173 1.381052 -7.891830 1.303899 -2.200986 7.208610 -0.951868 0.000000 0.000000 0.000000 0.000000 0.000000 0.000000 20.193996 -15.815809 6.273782 -19.695605 17.830040 4.610636 -22.438640 12.656604 29.219315 0.000000 0.000000 0.000000 -11.025095 3.533440 3.939203 -11.663205 12.189105 5.440449 0.329830 -34.714077 9.536392 0.000000 0.000000 0.000000
81.963956 87.120318 265.499367 -0.292417 1.202974 -5.398829 -0.157277 0.129917 5.402579 -0.524174 -0.013035 -0.034760 2.175625 0.732538 -0.124324 0.000000 0.000000 0.000000 17.208252 5.482967 -1.854395 -18.761391 -9.148993 -0.248556 7.243520 -2.440628 1.443270 -5.932238 2.185316 -0.813194 0.000000 0.000000 0.000000 0.000000 0.000000 0.000000 0.024031 -2.087480 0.723253 1.483449 1.354785 -0.736142 1.772480 -6.187485 1.153433 -2.918802 2.643231 -0.263001 0.000000 0.000000 0.000000 0.000000 0.000000 0.000000 17.116087 -14.647368 6.040808 -6.779617 11.791059 2.092437 -39.079341 11.396881 41.090954 0.000000 0.000000 0.000000 -9.362628 1.806420 4.241617 -12.191139 15.177850 6.975467 -12.960445 -39.842756 10.508706 0.000000 0.000000 0.000000
82.295233 87.145106 266.427455 -0.283122 1.019704 -5.586611 -0.143315 0.111172 5.588262 -0.515163 -0.012861 -0.036601 2.420095 1.407201 -0.168994 0.000000 0.000000 0.000000 16.539602 4.379506 -1.460874 -18.646259 -7.922166 -0.334227 8.607686 -2.491880 1.727702 -7.786650 1.947557 -0.893065 0.000000 0.000000 0.000000 0.000000 0.000000 0.000000 0.503826 -1.800745 0.559726 1.462114 0.508329 -0.268985 1.881476 -4.427312 0.905787 -3.757164 0.037175 0.001420 0.000000 0.000000 0.000000 0.000000 0.000000 0.000000 12.762235 -13.203285 5.546320 2.376165 7.821591 1.039187 -46.304256 9.398549 46.137537 0.000000 0.000000 0.000000 -7.436728 0.092955 4.459026 -14.819681 17.858027 7.882749 -13.672544 -50.101565 5.378967 0.000000 0.000000 0.000000
82.626443 87.238630 267.225804 -0.172912 0.899938 -5.470023 -0.139045 0.134670 5.473504 -0.509455 -0.006881 -0.032798 2.109261 1.540996 -0.097820 0.000000 0.000000 0.000000 16.582819 4.115592 -1.386505 -18.918371 -7.390668 -0.389134 9.646285 -3.036372 2.068046 -9.771589 2.960794 -1.030779 0.000000 0.000000 0.000000 0.000000 0.000000 0.000000 0.808506 -1.039918 0.032707 1.703007 -0.949814 0.616777 0.981002 -2.652535 0.386235 -3.312796 -1.459068 0.196684 0.000000 0.000000 0.000000 0.000000 0.000000 0.000000 7.691319 -11.722000 4.817334 8.450536 6.231903 0.542831 -47.074043 12.147438 44.592835 0.000000 0.000000 0.000000 -5.546946 -1.392501 4.459940 -17.959356 19.774058 8.351231 -11.938184 -48.401467 6.824765 0.000000 0.000000 0.000000
82.911516 87.330103 267.939934 -0.005495 0.845309 -5.304117 -0.133637 0.143142 5.311660 -0.503501 -0.005788 -0.026005 1.620911 1.677483 0.024346 0.000000 0.000000 0.000000 16.364738 3.897366 -1.327707 -18.753951 -6.749987 -0.395064 10.432041 -4.840406 2.526276 -10.591501 6.025099 -1.175068 0.000000 0.000000 0.000000 0.000000 0.000000 0.000000 0.629152 -0.994134 0.018824 2.101164 -1.324900 0.800323 0.476880 -1.909342 0.139895 -2.113005 -0.438635 -0.027242 0.000000 0.000000 0.000000 0.000000 0.000000 0.000000 2.570396 -10.105079 4.199181 12.909610 4.806767 0.375257 -43.222050 15.014049 38.956058 0.000000 0.000000 0.000000 -3.933746 -2.399960 4.476116 -19.540066 19.601163 7.549921 -6.042536 -29.493452 13.569796 0.000000 0.000000 0.000000
